<svg xmlns="http://www.w3.org/2000/svg" width="22" height="34" fill="none"><path fill="#FABC66" d="M17.126 33.627a4.223 4.223 0 0 1-3.006-1.245L1.868 20.129a4.26 4.26 0 0 1-1.24-3.128 4.264 4.264 0 0 1 1.24-3.13L14.121 1.618A4.221 4.221 0 0 1 17.126.374c1.136 0 2.202.442 3.005 1.244a4.255 4.255 0 0 1 0 6.01L10.759 17l9.372 9.371a4.255 4.255 0 0 1 0 6.01 4.222 4.222 0 0 1-3.005 1.245Zm0-31.254c-.601 0-1.166.234-1.591.659L3.519 15.285c-.446.447-.417 1.042-.417 1.677v.076c0 .636-.028 1.23.417 1.677l12.134 12.253c.425.424.931.658 1.532.658.602 0 1.137-.234 1.562-.659.877-.877.862-2.304-.015-3.182L8.646 17.707a1 1 0 0 1-.004-1.414L18.72 6.215a2.254 2.254 0 0 0 0-3.182 2.239 2.239 0 0 0-1.593-.66Z"/></svg>