<svg xmlns="http://www.w3.org/2000/svg" width="30" height="30" fill="none"><path fill="#000" fill-rule="evenodd" d="M12.222 26.25h5.556c3.901 0 5.852 0 7.253-.92a5.509 5.509 0 0 0 1.533-1.504c.936-1.376.936-3.291.936-7.122 0-3.83 0-5.745-.936-7.12a5.507 5.507 0 0 0-1.533-1.506c-.9-.59-2.028-.801-3.753-.877-.824 0-1.533-.613-1.695-1.406-.242-1.189-1.306-2.045-2.54-2.045h-4.085c-1.235 0-2.3.856-2.541 2.045-.162.793-.87 1.406-1.694 1.406-1.726.076-2.854.287-3.754.877a5.506 5.506 0 0 0-1.533 1.505C2.5 10.96 2.5 12.874 2.5 16.704c0 3.83 0 5.746.936 7.122A5.508 5.508 0 0 0 4.97 25.33c1.401.919 3.352.919 7.253.919ZM15 11.59c-2.877 0-5.208 2.29-5.208 5.114 0 2.825 2.332 5.114 5.208 5.114 2.877 0 5.208-2.29 5.208-5.114S17.877 11.591 15 11.591Zm0 2.046c-1.726 0-3.125 1.374-3.125 3.069 0 1.694 1.4 3.068 3.125 3.068 1.726 0 3.125-1.374 3.125-3.069 0-1.694-1.4-3.068-3.125-3.068Zm5.903-1.022c0-.565.466-1.023 1.042-1.023h1.388c.576 0 1.042.458 1.042 1.023 0 .564-.466 1.022-1.042 1.022h-1.388a1.032 1.032 0 0 1-1.042-1.022Z" clip-rule="evenodd"/></svg>