<svg xmlns="http://www.w3.org/2000/svg" width="36" height="37" fill="none"><path fill="#FABC66" fill-rule="evenodd" d="M2.409 9.62a1.5 1.5 0 0 1 1.97.789l-1.38.59 1.38-.59-.001-.002c0-.001 0 0 0 0l.006.013.03.069c.03.063.077.162.141.291.13.258.329.636.601 1.093a20.082 20.082 0 0 0 2.506 3.356 18.006 18.006 0 0 0 .882.887C10.771 18.202 13.878 20 18 20a13.07 13.07 0 0 0 4.831-.903c1.84-.724 3.38-1.814 4.642-2.998a19.58 19.58 0 0 0 3.922-5.22 11.297 11.297 0 0 0 .219-.453l.007-.017a1.5 1.5 0 0 1 2.758 1.181L33 11l1.379.59-.004.008-.005.012-.017.04a14.362 14.362 0 0 1-.286.592 23.052 23.052 0 0 1-3.453 4.945l1.197 1.195a1.5 1.5 0 1 1-2.122 2.121l-1.26-1.26a17.717 17.717 0 0 1-2.845 1.885l1.173 1.804a1.5 1.5 0 0 1-2.514 1.636l-1.479-2.272a15.967 15.967 0 0 1-3.264.637v2.317a1.5 1.5 0 0 1-3 0v-2.317a15.942 15.942 0 0 1-3.265-.636l-1.478 2.27a1.5 1.5 0 0 1-2.514-1.635l1.173-1.804a17.747 17.747 0 0 1-2.845-1.885l-1.26 1.26a1.5 1.5 0 1 1-2.122-2.12l1.196-1.197a23.109 23.109 0 0 1-2.807-3.778c-.314-.528-.548-.97-.706-1.286a13.668 13.668 0 0 1-.23-.483l-.014-.032-.004-.01-.002-.004v-.001S1.622 11.59 3 11l-1.378.592a1.501 1.501 0 0 1 .787-1.971Z" clip-rule="evenodd"/></svg>