<svg xmlns="http://www.w3.org/2000/svg" width="20" height="20" fill="none"><path fill="#FF9500" d="M10.694 18.168c2.605-.522 5.973-2.396 5.973-7.242 0-4.41-3.228-7.346-5.55-8.695-.514-.3-1.117.094-1.117.69v1.524c0 1.201-.505 3.394-1.909 4.307-.717.465-1.49-.232-1.578-1.082l-.071-.698c-.083-.812-.91-1.305-1.559-.81-1.165.89-2.383 2.446-2.383 4.764 0 5.926 4.407 7.407 6.611 7.407.128 0 .263-.003.403-.011-1.088-.093-2.847-.769-2.847-2.952 0-1.708 1.246-2.863 2.192-3.425.255-.15.553.046.553.342v.49c0 .376.145.964.491 1.366.391.455.966-.022 1.012-.62.015-.189.205-.31.368-.214.535.313 1.217.98 1.217 2.061 0 1.707-.94 2.492-1.806 2.798Z"/></svg>