<svg xmlns="http://www.w3.org/2000/svg" width="36" height="37" fill="none"><path fill="#FABC66" d="M14.625 18.5a3.375 3.375 0 1 1 6.75 0 3.375 3.375 0 0 1-6.75 0Z"/><path fill="#FABC66" fill-rule="evenodd" d="M3 18.5c0 2.46.637 3.287 1.912 4.944C7.458 26.75 11.727 30.5 18 30.5c6.273 0 10.542-3.75 13.088-7.056C32.362 21.787 33 20.959 33 18.5c0-2.46-.638-3.287-1.912-4.944C28.542 10.25 24.273 6.5 18 6.5c-6.273 0-10.542 3.75-13.088 7.056C3.637 15.213 3 16.041 3 18.5Zm15-5.625a5.625 5.625 0 1 0 0 11.25 5.625 5.625 0 0 0 0-11.25Z" clip-rule="evenodd"/></svg>