<svg xmlns="http://www.w3.org/2000/svg" width="36" height="36" fill="none"><path fill="#FF4848" d="M14.625 18a3.375 3.375 0 1 1 6.75 0 3.375 3.375 0 0 1-6.75 0Z"/><path fill="#FF4848" fill-rule="evenodd" d="M3 18c0 2.46.637 3.287 1.912 4.944C7.458 26.25 11.727 30 18 30c6.273 0 10.542-3.75 13.088-7.056C32.362 21.287 33 20.459 33 18c0-2.46-.638-3.287-1.912-4.944C28.542 9.75 24.273 6 18 6 11.727 6 7.458 9.75 4.912 13.056 3.637 14.713 3 15.541 3 18Zm15-5.625a5.625 5.625 0 1 0 0 11.25 5.625 5.625 0 0 0 0-11.25Z" clip-rule="evenodd"/></svg>