<svg xmlns="http://www.w3.org/2000/svg" width="24" height="24" fill="none"><g fill="#FF4848" clip-path="url(#a)"><path d="M8 21H3.409A.41.41 0 0 1 3 20.591V3.409A.41.41 0 0 1 3.409 3H8a1.5 1.5 0 0 0 0-3H3.409A3.413 3.413 0 0 0 0 3.409v17.182A3.413 3.413 0 0 0 3.409 24H8a1.5 1.5 0 1 0 0-3Z"/><path d="M22.682 8.817 18.8 4.938a1.5 1.5 0 1 0-2.12 2.122l3.411 3.411-13.59.028a1.5 1.5 0 1 0 0 3l13.645-.025-3.467 3.467a1.5 1.5 0 0 0 2.121 2.12l3.88-3.88a4.5 4.5 0 0 0 0-6.364h.002Z"/></g><defs><clipPath id="a"><path fill="#fff" d="M0 0h24v24H0z"/></clipPath></defs></svg>