<svg xmlns="http://www.w3.org/2000/svg" width="30" height="30" fill="none"><path fill="#EAE9FC" fill-opacity=".7" fill-rule="evenodd" d="M15.938 0h-1.876c-1.034 0-1.874.84-1.874 1.875v26.25c0 1.035.84 1.875 1.874 1.875h1.876c1.034 0 1.874-.84 1.874-1.875V1.875C17.813.84 16.973 0 15.938 0Zm9.374 15h-1.875c-1.035 0-1.875.84-1.875 1.875v11.25c0 1.035.84 1.875 1.875 1.875h1.875c1.035 0 1.875-.84 1.875-1.875v-11.25c0-1.035-.84-1.875-1.875-1.875ZM6.563 8.437H4.688c-1.035 0-1.875.84-1.875 1.876v17.812c0 1.035.84 1.875 1.876 1.875h1.875c1.035 0 1.875-.84 1.875-1.875V10.312c0-1.034-.84-1.874-1.876-1.874Z" clip-rule="evenodd"/></svg>