<svg width="36" height="37" viewBox="0 0 36 37" fill="none" xmlns="http://www.w3.org/2000/svg">
<path fill-rule="evenodd" clip-rule="evenodd" d="M18 5.89999C16.3454 5.89999 14.7069 6.2259 13.1782 6.85911C11.6495 7.49232 10.2605 8.42042 9.0905 9.59044C7.92049 10.7605 6.99238 12.1495 6.35917 13.6782C5.72596 15.2069 5.40005 16.8453 5.40005 18.5C5.40005 20.1546 5.72596 21.7931 6.35917 23.3218C6.99238 24.8505 7.92049 26.2395 9.0905 27.4095C10.2605 28.5796 11.6495 29.5077 13.1782 30.1409C14.7069 30.7741 16.3454 31.1 18 31.1C21.3418 31.1 24.5466 29.7725 26.9096 27.4095C29.2726 25.0466 30.6 21.8417 30.6 18.5C30.6 15.1583 29.2726 11.9534 26.9096 9.59044C24.5466 7.22748 21.3418 5.89999 18 5.89999ZM1.80005 18.5C1.80005 14.2035 3.50683 10.0829 6.54492 7.04486C9.58301 4.00677 13.7035 2.29999 18 2.29999C22.2966 2.29999 26.4171 4.00677 29.4552 7.04486C32.4933 10.0829 34.2001 14.2035 34.2001 18.5C34.2001 22.7965 32.4933 26.917 29.4552 29.9551C26.4171 32.9932 22.2966 34.7 18 34.7C13.7035 34.7 9.58301 32.9932 6.54492 29.9551C3.50683 26.917 1.80005 22.7965 1.80005 18.5ZM19.8181 25.7C19.8181 26.1774 19.6284 26.6352 19.2908 26.9728C18.9533 27.3103 18.4954 27.5 18.018 27.5H18C17.5227 27.5 17.0648 27.3103 16.7273 26.9728C16.3897 26.6352 16.2 26.1774 16.2 25.7C16.2 25.2226 16.3897 24.7648 16.7273 24.4272C17.0648 24.0896 17.5227 23.9 18 23.9H18.018C18.4954 23.9 18.9533 24.0896 19.2908 24.4272C19.6284 24.7648 19.8181 25.2226 19.8181 25.7ZM19.8 11.3C19.8 10.8226 19.6104 10.3648 19.2728 10.0272C18.9353 9.68963 18.4774 9.49999 18 9.49999C17.5227 9.49999 17.0648 9.68963 16.7273 10.0272C16.3897 10.3648 16.2 10.8226 16.2 11.3V20.3C16.2 20.7774 16.3897 21.2352 16.7273 21.5728C17.0648 21.9103 17.5227 22.1 18 22.1C18.4774 22.1 18.9353 21.9103 19.2728 21.5728C19.6104 21.2352 19.8 20.7774 19.8 20.3V11.3Z" fill="#FF4848"/>
</svg>
